<svg width="61.207" height="70" viewBox="0 0 61.207 70" xmlns="http://www.w3.org/2000/svg"><g id="svgGroup" stroke-linecap="round" fill-rule="evenodd" font-size="9pt" stroke="#000" stroke-width="0.25mm" fill="#000" style="stroke:#000;stroke-width:0.25mm;fill:#000"><path d="M 0 1.9 L 0 0 L 29.9 0 A 82.935 82.935 0 0 1 37.169 0.297 Q 45.755 1.055 50.75 3.75 A 12.476 12.476 0 0 1 57.355 12.692 A 18.938 18.938 0 0 1 57.7 16.4 Q 57.7 29.346 42.966 32.47 A 38.489 38.489 0 0 1 41.2 32.8 L 41.2 33 A 40.843 40.843 0 0 1 48.871 34.647 Q 61.2 38.702 61.2 50.4 A 22.452 22.452 0 0 1 60.477 56.295 A 14.471 14.471 0 0 1 53 65.65 A 30.814 30.814 0 0 1 46.512 68.127 Q 39.958 69.88 30.69 69.993 A 105.841 105.841 0 0 1 29.4 70 L 0 70 L 0 68.1 L 6.5 68.1 L 6.5 1.9 L 0 1.9 Z M 28.3 34.6 L 26 34.6 L 26 68.1 L 30.7 68.1 A 12.369 12.369 0 0 0 33.604 67.783 A 7.246 7.246 0 0 0 38.4 64.3 A 13.437 13.437 0 0 0 39.653 61.263 Q 40.521 58.231 40.593 53.896 A 47.832 47.832 0 0 0 40.6 53.1 L 40.6 47.8 A 25.763 25.763 0 0 0 40.362 44.172 Q 39.798 40.221 37.9 37.9 A 7.783 7.783 0 0 0 34.804 35.674 Q 32.313 34.633 28.537 34.601 A 28.406 28.406 0 0 0 28.3 34.6 Z M 29.2 1.9 L 26 1.9 L 26 32.7 L 28.6 32.7 Q 31.833 32.7 33.848 31.483 A 6.152 6.152 0 0 0 35.85 29.55 A 10.328 10.328 0 0 0 37.017 26.989 Q 37.811 24.449 37.891 20.742 A 39.161 39.161 0 0 0 37.9 19.9 L 37.9 15.2 Q 37.9 9.451 36.813 6.388 A 8.237 8.237 0 0 0 36.1 4.85 A 5.578 5.578 0 0 0 33.256 2.549 Q 32.241 2.154 30.957 1.999 A 14.752 14.752 0 0 0 29.2 1.9 Z" vector-effect="non-scaling-stroke"/></g></svg>